<svg xmlns="http://www.w3.org/2000/svg" viewBox="0 0 400 400" role="img" aria-labelledby="title desc">
  <title id="title">Data Modernization icon</title>
  <desc id="desc">Layered data stacks, transfer paths, and a clean foundation symbolizing data modernization.</desc>
  <defs>
    <linearGradient id="panel" x1="48" y1="42" x2="346" y2="358" gradientUnits="userSpaceOnUse">
      <stop offset="0" stop-color="#13264a"/>
      <stop offset="1" stop-color="#081225"/>
    </linearGradient>
    <linearGradient id="stack" x1="94" y1="108" x2="274" y2="262" gradientUnits="userSpaceOnUse">
      <stop offset="0" stop-color="#22d3ee"/>
      <stop offset="0.5" stop-color="#60a5fa"/>
      <stop offset="1" stop-color="#5eead4"/>
    </linearGradient>
    <linearGradient id="flow" x1="256" y1="150" x2="316" y2="246" gradientUnits="userSpaceOnUse">
      <stop offset="0" stop-color="#f8b84a"/>
      <stop offset="1" stop-color="#ff9a62"/>
    </linearGradient>
  </defs>
  <rect x="28" y="28" width="344" height="344" rx="34" fill="url(#panel)" stroke="rgba(161, 183, 219, 0.18)"/>
  <ellipse cx="164" cy="110" rx="84" ry="30" fill="#13264a" stroke="url(#stack)" stroke-width="8"/>
  <path d="M80 110V170C80 186 118 198 164 198C210 198 248 186 248 170V110" fill="#0f2345" stroke="url(#stack)" stroke-width="8"/>
  <ellipse cx="164" cy="170" rx="84" ry="30" fill="#13264a" stroke="url(#stack)" stroke-width="8"/>
  <path d="M80 170V230C80 246 118 258 164 258C210 258 248 246 248 230V170" fill="#0d1d39" stroke="url(#stack)" stroke-width="8"/>
  <ellipse cx="164" cy="230" rx="84" ry="30" fill="#13264a" stroke="url(#stack)" stroke-width="8"/>
  <rect x="278" y="126" width="36" height="128" rx="18" fill="#0f2345" stroke="#ff9a62" stroke-width="6"/>
  <path d="M248 146H278" stroke="url(#flow)" stroke-width="12" stroke-linecap="round"/>
  <path d="M248 194H278" stroke="url(#flow)" stroke-width="12" stroke-linecap="round"/>
  <path d="M248 242H278" stroke="url(#flow)" stroke-width="12" stroke-linecap="round"/>
  <circle cx="296" cy="146" r="10" fill="#f8b84a"/>
  <circle cx="296" cy="194" r="10" fill="#fb7185"/>
  <circle cx="296" cy="242" r="10" fill="#5eead4"/>
  <path d="M106 308H294" stroke="rgba(233, 240, 255, 0.16)" stroke-width="8" stroke-linecap="round"/>
  <path d="M130 330H270" stroke="rgba(94, 234, 212, 0.34)" stroke-width="8" stroke-linecap="round"/>
</svg>
