<svg xmlns="http://www.w3.org/2000/svg" viewBox="0 0 960 720" role="img" aria-labelledby="title desc">
  <title id="title">Northeast Florida regional illustration</title>
  <desc id="desc">A stylized Northeast Florida coverage map with connected city nodes for Jacksonville, St. Augustine, Gainesville, and Orlando.</desc>
  <defs>
    <linearGradient id="bg" x1="120" y1="70" x2="800" y2="646" gradientUnits="userSpaceOnUse">
      <stop offset="0" stop-color="#11284d"/>
      <stop offset="1" stop-color="#060d1a"/>
    </linearGradient>
    <linearGradient id="coast" x1="316" y1="98" x2="632" y2="598" gradientUnits="userSpaceOnUse">
      <stop offset="0" stop-color="#22d3ee"/>
      <stop offset="0.55" stop-color="#60a5fa"/>
      <stop offset="1" stop-color="#5eead4"/>
    </linearGradient>
    <linearGradient id="route" x1="322" y1="184" x2="702" y2="484" gradientUnits="userSpaceOnUse">
      <stop offset="0" stop-color="#22d3ee"/>
      <stop offset="0.55" stop-color="#f8b84a"/>
      <stop offset="1" stop-color="#fb7185"/>
    </linearGradient>
    <radialGradient id="warm" cx="0" cy="0" r="1" gradientTransform="translate(744 180) rotate(90) scale(150)" gradientUnits="userSpaceOnUse">
      <stop offset="0" stop-color="#ff9a62" stop-opacity="0.26"/>
      <stop offset="1" stop-color="#ff9a62" stop-opacity="0"/>
    </radialGradient>
  </defs>
  <rect width="960" height="720" rx="40" fill="url(#bg)"/>
  <circle cx="744" cy="180" r="150" fill="url(#warm)"/>
  <rect x="74" y="92" width="812" height="536" rx="28" fill="rgba(16, 28, 53, 0.52)" stroke="rgba(161, 183, 219, 0.18)"/>
  <g fill="none" stroke="rgba(161, 183, 219, 0.12)" stroke-width="2">
    <path d="M154 160H806"/>
    <path d="M154 260H806"/>
    <path d="M154 360H806"/>
    <path d="M154 460H806"/>
    <path d="M154 560H806"/>
    <path d="M244 132V588"/>
    <path d="M394 132V588"/>
    <path d="M544 132V588"/>
    <path d="M694 132V588"/>
  </g>
  <path d="M344 126C386 178 412 224 428 272C450 338 466 406 534 442C590 472 610 504 612 566C612 588 626 602 650 602H704C732 602 756 580 756 552V162C756 136 736 118 710 118H384C366 118 352 122 344 126Z" fill="rgba(34, 211, 238, 0.08)" stroke="url(#coast)" stroke-width="10" stroke-linejoin="round"/>
  <path d="M634 150C596 186 554 222 512 286C480 334 450 378 420 412" fill="none" stroke="#7dd3fc" stroke-width="6" stroke-linecap="round" opacity="0.56"/>
  <path d="M530 212C598 234 644 280 676 356C698 410 706 468 700 518" fill="none" stroke="rgba(248, 184, 74, 0.46)" stroke-width="5" stroke-linecap="round"/>
  <path d="M632 176L664 246L602 320L514 396L458 490" fill="none" stroke="url(#route)" stroke-width="10" stroke-linecap="round" stroke-linejoin="round"/>
  <g>
    <circle cx="632" cy="176" r="15" fill="#22d3ee"/>
    <circle cx="664" cy="246" r="13" fill="#5eead4"/>
    <circle cx="602" cy="320" r="13" fill="#60a5fa"/>
    <circle cx="514" cy="396" r="14" fill="#f8b84a"/>
    <circle cx="458" cy="490" r="16" fill="#fb7185"/>
  </g>
  <g fill="#e9f0ff" font-family="Plus Jakarta Sans, Segoe UI, sans-serif" font-size="28" font-weight="700">
    <text x="662" y="166">Jacksonville</text>
    <text x="690" y="238">St. Augustine</text>
    <text x="610" y="312">Gainesville</text>
    <text x="532" y="388">Regional Reach</text>
    <text x="486" y="514">Orlando</text>
  </g>
  <g fill="#a5b9de" font-family="Plus Jakarta Sans, Segoe UI, sans-serif" font-size="22">
    <text x="154" y="654">Coverage zone for Northeast Florida business transformation work.</text>
  </g>
</svg>
